<svg xmlns="http://www.w3.org/2000/svg" width="32" height="32" viewBox="0 0 32 32">
  <defs>
    <linearGradient id="g1" x1="0" y1="0" x2="1" y2="1">
      <stop offset="0%" stop-color="#0ea5e9"/>
      <stop offset="100%" stop-color="#0284c7"/>
    </linearGradient>
    <linearGradient id="g2" x1="0" y1="0" x2="1" y2="1">
      <stop offset="0%" stop-color="#06b6d4"/>
      <stop offset="100%" stop-color="#0ea5e9"/>
    </linearGradient>
  </defs>
  <!-- Shield shape -->
  <path d="M16 2L4 7v8c0 7.5 5.1 14.5 12 16 6.9-1.5 12-8.5 12-16V7L16 2z" fill="url(#g1)" opacity="0.15"/>
  <path d="M16 2L4 7v8c0 7.5 5.1 14.5 12 16 6.9-1.5 12-8.5 12-16V7L16 2z" fill="none" stroke="url(#g1)" stroke-width="1.5"/>
  <!-- Lock arc -->
  <path d="M11 13V10.5a5 5 0 0 1 10 0V13" fill="none" stroke="#1e3a5f" stroke-width="2" stroke-linecap="round"/>
  <!-- Lock body -->
  <rect x="9" y="13" width="14" height="10" rx="2" fill="url(#g2)" opacity="0.9"/>
  <!-- Keyhole -->
  <circle cx="16" cy="17.5" r="1.5" fill="white"/>
  <rect x="15.25" y="18.5" width="1.5" height="3" rx="0.75" fill="white"/>
</svg>
